<?xml version="1.0" encoding="utf-8" ?>
<svg baseProfile="tiny" height="100%" version="1.2" width="100%" xmlns="http://www.w3.org/2000/svg" xmlns:ev="http://www.w3.org/2001/xml-events" xmlns:xlink="http://www.w3.org/1999/xlink"><defs /><path d="M 139,105 L 138,106 L 132,106 L 131,107 L 128,107 L 127,108 L 125,108 L 124,109 L 121,109 L 120,110 L 118,110 L 117,111 L 115,111 L 114,112 L 112,112 L 111,113 L 109,113 L 108,114 L 107,114 L 106,115 L 104,115 L 103,116 L 102,116 L 101,117 L 100,117 L 99,118 L 97,118 L 96,119 L 95,119 L 94,120 L 93,120 L 91,122 L 90,122 L 89,123 L 88,123 L 86,125 L 85,125 L 83,127 L 82,127 L 69,140 L 69,141 L 67,143 L 67,144 L 66,145 L 66,147 L 65,148 L 65,150 L 64,151 L 64,153 L 65,154 L 65,156 L 66,157 L 66,158 L 71,163 L 72,163 L 74,165 L 75,165 L 77,167 L 78,167 L 79,168 L 80,168 L 81,169 L 82,169 L 83,170 L 84,170 L 85,171 L 87,171 L 88,172 L 90,172 L 91,173 L 93,173 L 94,174 L 96,174 L 97,175 L 99,175 L 100,176 L 102,176 L 103,177 L 104,177 L 105,178 L 107,178 L 108,179 L 110,179 L 111,180 L 112,180 L 113,181 L 115,181 L 116,182 L 117,182 L 118,183 L 119,183 L 121,185 L 115,191 L 115,192 L 114,193 L 114,197 L 117,200 L 118,200 L 119,201 L 121,201 L 122,202 L 127,202 L 128,201 L 132,201 L 133,200 L 134,200 L 135,199 L 136,199 L 138,197 L 138,192 L 136,190 L 136,189 L 132,185 L 135,182 L 136,182 L 137,181 L 138,181 L 139,180 L 140,180 L 141,179 L 142,179 L 143,178 L 145,178 L 146,177 L 147,177 L 148,178 L 146,180 L 146,181 L 145,182 L 146,183 L 149,183 L 153,179 L 154,179 L 158,175 L 159,175 L 160,176 L 160,177 L 161,178 L 162,178 L 163,179 L 173,179 L 174,178 L 202,178 L 203,177 L 209,177 L 210,178 L 209,179 L 208,179 L 207,180 L 207,181 L 204,184 L 204,185 L 203,186 L 203,192 L 204,193 L 207,193 L 210,190 L 210,189 L 212,187 L 212,186 L 214,184 L 214,183 L 215,182 L 215,181 L 217,179 L 217,178 L 218,177 L 219,177 L 220,176 L 222,176 L 223,175 L 226,175 L 227,174 L 233,174 L 234,173 L 240,173 L 241,172 L 254,172 L 255,173 L 255,174 L 256,175 L 261,175 L 262,174 L 263,174 L 264,173 L 265,173 L 267,171 L 268,171 L 269,170 L 270,171 L 271,171 L 272,172 L 294,172 L 295,171 L 298,171 L 299,172 L 299,173 L 298,174 L 298,175 L 302,175 L 303,174 L 304,174 L 306,172 L 307,172 L 308,171 L 309,171 L 310,170 L 311,170 L 312,171 L 312,172 L 311,173 L 311,175 L 312,175 L 313,176 L 314,175 L 315,175 L 317,173 L 318,173 L 321,170 L 324,173 L 353,173 L 354,172 L 366,172 L 367,171 L 367,170 L 366,169 L 345,169 L 344,170 L 330,170 L 329,169 L 328,169 L 327,168 L 327,165 L 326,164 L 323,164 L 322,165 L 321,165 L 319,163 L 316,163 L 315,164 L 314,164 L 313,165 L 312,165 L 311,166 L 310,166 L 309,167 L 308,167 L 307,168 L 306,167 L 306,166 L 307,165 L 307,164 L 306,163 L 303,163 L 303,164 L 302,165 L 302,166 L 300,168 L 274,168 L 273,167 L 273,164 L 274,163 L 272,161 L 269,161 L 268,162 L 265,162 L 264,163 L 263,163 L 262,164 L 261,164 L 259,166 L 258,166 L 256,168 L 252,168 L 251,169 L 237,169 L 236,170 L 230,170 L 229,171 L 226,171 L 225,170 L 225,168 L 224,168 L 223,167 L 222,167 L 220,169 L 219,169 L 218,170 L 217,170 L 216,171 L 215,171 L 214,172 L 213,172 L 212,171 L 212,170 L 214,168 L 214,166 L 213,166 L 212,165 L 211,166 L 210,166 L 208,168 L 208,169 L 207,170 L 207,173 L 206,174 L 194,174 L 193,175 L 172,175 L 171,176 L 165,176 L 164,175 L 165,174 L 165,173 L 166,172 L 166,171 L 167,170 L 167,168 L 166,167 L 164,167 L 163,168 L 162,168 L 161,169 L 160,169 L 159,168 L 160,167 L 160,166 L 162,164 L 162,163 L 163,162 L 163,161 L 164,160 L 164,159 L 165,158 L 165,157 L 166,156 L 166,155 L 167,154 L 167,153 L 169,151 L 169,150 L 170,149 L 170,148 L 172,146 L 172,145 L 171,144 L 169,144 L 168,145 L 167,145 L 162,150 L 162,151 L 163,152 L 162,153 L 162,154 L 161,155 L 161,156 L 159,158 L 159,159 L 158,160 L 158,161 L 157,162 L 157,163 L 155,165 L 155,166 L 154,167 L 154,168 L 153,169 L 153,170 L 152,171 L 149,171 L 148,172 L 146,172 L 145,173 L 144,173 L 143,174 L 141,174 L 140,175 L 139,175 L 138,176 L 137,176 L 136,177 L 135,177 L 134,178 L 133,178 L 132,179 L 131,179 L 130,180 L 129,180 L 128,181 L 127,181 L 126,182 L 125,181 L 124,181 L 123,180 L 122,180 L 121,179 L 120,179 L 119,178 L 118,178 L 117,177 L 115,177 L 114,176 L 112,176 L 111,175 L 110,175 L 109,174 L 107,174 L 106,173 L 104,173 L 103,172 L 101,172 L 100,171 L 99,171 L 98,170 L 96,170 L 95,169 L 93,169 L 92,168 L 91,168 L 90,167 L 88,167 L 87,166 L 86,166 L 85,165 L 83,165 L 82,164 L 81,164 L 80,163 L 79,163 L 77,161 L 76,161 L 74,159 L 73,159 L 72,158 L 72,157 L 70,155 L 70,148 L 71,147 L 71,146 L 73,144 L 73,143 L 83,133 L 84,133 L 87,130 L 88,130 L 90,128 L 91,128 L 93,126 L 94,126 L 95,125 L 96,125 L 97,124 L 98,124 L 99,123 L 100,123 L 101,122 L 102,122 L 103,121 L 104,121 L 105,120 L 107,120 L 108,119 L 109,119 L 110,118 L 111,118 L 112,117 L 114,117 L 115,116 L 116,116 L 117,115 L 119,115 L 120,114 L 122,114 L 123,113 L 126,113 L 127,112 L 130,112 L 131,111 L 136,111 L 137,110 L 146,110 L 147,109 L 148,109 L 149,110 L 153,110 L 154,111 L 155,111 L 156,112 L 157,112 L 161,116 L 161,118 L 162,119 L 162,121 L 161,122 L 161,125 L 160,126 L 160,127 L 158,129 L 158,130 L 152,136 L 151,135 L 151,133 L 150,132 L 145,132 L 144,133 L 143,133 L 140,136 L 139,136 L 137,138 L 136,138 L 134,140 L 133,140 L 130,143 L 129,143 L 125,147 L 124,147 L 119,152 L 118,152 L 108,162 L 108,163 L 107,164 L 107,165 L 106,166 L 106,169 L 107,170 L 113,170 L 114,169 L 116,169 L 117,168 L 119,168 L 120,167 L 121,167 L 122,166 L 123,166 L 125,164 L 126,164 L 128,162 L 129,162 L 131,160 L 132,160 L 135,157 L 136,157 L 140,153 L 141,153 L 143,151 L 144,151 L 149,146 L 150,146 L 158,138 L 158,137 L 162,133 L 162,132 L 164,130 L 164,129 L 165,128 L 165,127 L 166,126 L 166,124 L 167,123 L 167,117 L 166,116 L 166,115 L 165,114 L 165,113 L 162,110 L 161,110 L 159,108 L 157,108 L 156,107 L 154,107 L 153,106 L 147,106 L 146,105" fill="none" stroke="black" stroke-width="2" /></svg>