<?xml version="1.0" standalone="no"?>
<!DOCTYPE svg PUBLIC "-//W3C//DTD SVG 20010904//EN"
 "http://www.w3.org/TR/2001/REC-SVG-20010904/DTD/svg10.dtd">
<svg version="1.0" xmlns="http://www.w3.org/2000/svg"
 width="300.000000pt" height="180.000000pt" viewBox="0 0 300.000000 180.000000"
 preserveAspectRatio="xMidYMid meet">
<metadata>
Created by potrace 1.10, written by Peter Selinger 2001-2011
</metadata>
<g transform="translate(0.000000,180.000000) scale(0.100000,-0.100000)"
fill="#000000" stroke="none">
<path d="M775 1154 c-156 -38 -292 -112 -352 -192 -72 -95 -34 -145 167 -217
150 -53 147 -51 116 -80 -28 -26 -30 -33 -18 -52 19 -30 97 -36 130 -10 18 14
15 44 -8 67 -20 20 -20 20 30 45 47 24 64 23 39 -2 -7 -7 -7 -13 0 -17 5 -4
25 7 44 24 29 25 36 27 41 15 5 -14 24 -15 143 -9 76 4 147 11 158 17 13 6 8
-3 -13 -26 -23 -23 -33 -42 -30 -58 5 -36 20 -29 56 26 39 58 48 62 164 73 70
6 88 5 93 -6 6 -15 40 -8 65 13 11 10 20 11 34 3 11 -6 48 -8 92 -5 60 4 72 3
67 -9 -7 -19 7 -17 42 6 38 25 44 25 38 0 -7 -25 2 -25 38 1 16 11 29 15 29 9
0 -7 41 -10 133 -8 82 2 131 7 129 13 -1 6 -46 9 -118 6 -110 -3 -115 -2 -121
18 -4 16 -9 19 -23 11 -13 -7 -20 -6 -23 3 -3 9 -13 8 -42 -6 -32 -15 -37 -16
-32 -2 4 9 1 15 -9 15 -8 0 -17 -7 -20 -15 -5 -12 -25 -15 -91 -15 -82 0 -84
1 -78 21 7 21 5 22 -30 16 -21 -3 -45 -13 -55 -22 -9 -8 -32 -15 -51 -15 -19
0 -61 -5 -94 -10 -43 -7 -61 -7 -66 2 -6 9 -14 9 -34 0 -35 -16 -53 -16 -37 0
14 14 16 28 3 28 -17 0 -40 -30 -35 -44 4 -11 -20 -15 -123 -18 -70 -2 -130
-3 -132 -1 -2 1 2 9 8 17 21 25 3 39 -25 21 -29 -19 -30 -12 -6 23 41 60 72
121 63 126 -10 7 -62 -31 -58 -43 4 -16 -58 -121 -72 -121 -7 0 -41 -13 -76
-30 l-63 -30 -108 41 c-149 56 -212 87 -225 111 -45 85 209 251 416 273 89 9
135 -22 121 -81 -12 -50 -237 -245 -280 -244 -23 1 186 170 210 170 8 0 14 7
14 15 0 26 -30 16 -95 -30 -133 -95 -198 -169 -166 -189 20 -12 101 28 186 93
135 103 187 177 166 234 -21 54 -122 77 -226 51z m5 -499 c18 -21 5 -45 -24
-45 -33 0 -42 17 -20 41 21 23 28 24 44 4z"/>
</g>
</svg>
